HIERARCHY
ROOT SpineBase
{
  OFFSET 0.000000 0.000000 0.000000
  CHANNELS 6 Xposition Yposition Zposition Zrotation Xrotation Yrotation
  JOINT SpineMid
  {
    OFFSET -0.000000 34.407617 0.000000
    CHANNELS 3 Zrotation Xrotation Yrotation
    JOINT SpineShoulder
    {
      OFFSET 1.020984 25.523709 -0.384655
      CHANNELS 3 Zrotation Xrotation Yrotation
      JOINT Neck
      {
        OFFSET 0.569083 8.378575 -0.315040
        CHANNELS 3 Zrotation Xrotation Yrotation
        JOINT Head
        {
          OFFSET -2.861482 10.493040 6.320613
          CHANNELS 3 Zrotation Xrotation Yrotation
          End Site
          {
            OFFSET 0 0 0
          }
        }
      }
      JOINT ShoulderLeft
      {
        OFFSET -13.357093 -5.865815 -19.925816
        CHANNELS 3 Zrotation Xrotation Yrotation
        JOINT ElbowLeft
        {
          OFFSET 1.713631 -27.655937 1.427633
          CHANNELS 3 Zrotation Xrotation Yrotation
          JOINT WristLeft
          {
            OFFSET -10.926059 -10.544614 11.655468
            CHANNELS 3 Zrotation Xrotation Yrotation
            JOINT HandLeft
            {
              OFFSET 2.003605 -6.161841 -6.169955
              CHANNELS 3 Zrotation Xrotation Yrotation
              JOINT HandTipLeft
              {
                OFFSET -0.378439 -0.828499 -0.405337
                CHANNELS 3 Zrotation Xrotation Yrotation
                End Site
                {
                  OFFSET 0 0 0
                }
              }
              JOINT ThumbLeft
              {
                OFFSET -0.469326 -0.093874 -2.747189
                CHANNELS 3 Zrotation Xrotation Yrotation
                End Site
                {
                  OFFSET 0 0 0
                }
              }
            }
          }
        }
      }
      JOINT ShoulderRight
      {
        OFFSET -1.824268 -4.554278 -13.938404
        CHANNELS 3 Zrotation Xrotation Yrotation
        JOINT ElbowRight
        {
          OFFSET -8.959638 -26.461529 -4.181303
          CHANNELS 3 Zrotation Xrotation Yrotation
          JOINT WristRight
          {
            OFFSET -8.672271 -22.781914 1.962698
            CHANNELS 3 Zrotation Xrotation Yrotation
            JOINT HandRight
            {
              OFFSET -1.849484 -8.576889 1.335325
              CHANNELS 3 Zrotation Xrotation Yrotation
              JOINT HandTipRight
              {
                OFFSET -2.148493 -7.918556 -0.962468
                CHANNELS 3 Zrotation Xrotation Yrotation
                End Site
                {
                  OFFSET 0 0 0
                }
              }
              JOINT ThumbRight
              {
                OFFSET 3.155024 -0.281039 0.768179
                CHANNELS 3 Zrotation Xrotation Yrotation
                End Site
                {
                  OFFSET 0 0 0
                }
              }
            }
          }
        }
      }
    }
  }
  JOINT HipLeft
  {
    OFFSET -6.586021 0.487297 -0.581687
    CHANNELS 3 Zrotation Xrotation Yrotation
    JOINT KneeLeft
    {
      OFFSET 14.381829 -30.739015 8.217117
      CHANNELS 3 Zrotation Xrotation Yrotation
      JOINT AnkleLeft
      {
        OFFSET 2.883940 -38.204418 3.228747
        CHANNELS 3 Zrotation Xrotation Yrotation
        JOINT FootLeft
        {
          OFFSET -8.041581 -1.316237 -13.190632
          CHANNELS 3 Zrotation Xrotation Yrotation
          End Site
          {
            OFFSET 0 0 0
          }
        }
      }
    }
  }
  JOINT HipRight
  {
    OFFSET 5.180739 1.458901 -7.420031
    CHANNELS 3 Zrotation Xrotation Yrotation
    JOINT KneeRight
    {
      OFFSET -11.392855 -35.210301 -4.578021
      CHANNELS 3 Zrotation Xrotation Yrotation
      JOINT AnkleRight
      {
        OFFSET 1.166767 -33.786641 -4.933791
        CHANNELS 3 Zrotation Xrotation Yrotation
        JOINT FootRight
        {
          OFFSET -5.726977 -6.420493 -2.687151
          CHANNELS 3 Zrotation Xrotation Yrotation
          End Site
          {
            OFFSET 0 0 0
          }
        }
      }
    }
  }
}
MOTION
Frames: 9
Frame Time: 0.033333
49.807360 76.780919 331.764928 2.931389 -0.834867 32.480608 1.906876 -2.299373 -32.260657 1.879521 -0.908429 0.344939 -8.212424 3.713299 0.360247 0.000000 0.000000 0.000000 -10.139696 1.059818 -0.439307 5.983465 5.073139 0.362432 -4.046109 7.717711 3.404970 1.567571 -19.377906 -0.634583 0.000000 0.000000 0.000000 0.000000 0.000000 0.000000 -7.638678 2.712128 -0.289742 -0.000000 0.000000 0.000000 -0.501188 -3.030541 0.559521 -0.764232 0.247654 0.361526 0.000000 0.000000 0.000000 0.000000 0.000000 0.000000 -6.894645 11.906177 -31.659764 10.926980 -6.170699 0.565947 2.389056 -6.152084 2.562793 0.000000 0.000000 0.000000 -5.246088 8.563455 -32.483448 5.816039 -2.719945 0.612026 1.310603 -3.202183 1.670502 0.000000 0.000000 0.000000
50.151759 76.715617 332.090736 3.400204 -1.123399 32.202740 1.829329 -2.018785 -31.975451 1.787818 -0.834774 0.341083 -6.674662 4.578844 -0.527797 0.000000 0.000000 0.000000 -10.437923 0.919664 -0.457383 6.264074 5.394443 0.357482 -5.778142 4.347554 3.983459 4.090430 -22.121500 1.391946 0.000000 0.000000 0.000000 0.000000 0.000000 0.000000 -7.795726 2.746729 -0.291900 -0.000000 0.000000 0.000000 -0.192972 -3.452431 0.705260 -1.564584 0.469382 0.371436 0.000000 0.000000 0.000000 0.000000 0.000000 0.000000 -7.472549 12.986689 -31.199371 11.543512 -6.551203 0.609476 -0.495991 -1.606406 0.856634 0.000000 0.000000 0.000000 -5.806310 9.709686 -32.164522 6.444811 -3.087599 0.716764 1.044195 -3.573202 2.047820 0.000000 0.000000 0.000000
50.166867 76.654177 332.534197 3.307032 -1.446677 31.521354 2.090103 -2.174976 -31.271937 1.832909 -0.648592 0.326805 -5.210724 5.742075 -1.401361 0.000000 0.000000 0.000000 -11.319939 0.837069 -0.486078 7.430086 6.220282 0.317211 -5.875107 2.325169 3.074202 4.411285 -20.576543 2.058989 0.000000 0.000000 0.000000 0.000000 0.000000 0.000000 -8.040895 2.914485 -0.294822 -0.000000 0.000000 0.000000 0.097420 -3.520949 0.774069 -2.781182 2.362544 0.020784 0.000000 0.000000 0.000000 0.000000 0.000000 0.000000 -7.144975 13.465417 -30.281502 11.451697 -6.917992 0.441022 -2.443904 1.679338 -0.002325 0.000000 0.000000 0.000000 -5.442194 10.486398 -31.654298 6.639455 -3.659237 0.944883 0.966984 -3.916071 2.328381 0.000000 0.000000 0.000000
49.530170 76.666433 332.287713 2.646601 -1.085061 32.046667 2.160943 -2.489249 -31.812323 2.275720 -0.840040 0.350647 -3.723954 6.715135 -2.161103 0.000000 0.000000 0.000000 -12.471146 0.567579 -0.535905 9.367096 7.414103 0.215774 -8.485208 -5.909010 2.278093 6.808003 -16.102660 3.418626 0.000000 0.000000 0.000000 0.000000 0.000000 0.000000 -8.057145 2.945540 -0.294943 -0.000000 0.000000 0.000000 0.679034 -3.615899 0.903823 -3.714884 4.740023 -0.552485 0.000000 0.000000 0.000000 0.000000 0.000000 0.000000 -6.001783 12.068738 -30.945780 10.395353 -6.459207 0.255206 -3.602612 3.670545 -0.150473 0.000000 0.000000 0.000000 -4.500742 9.061174 -32.291205 5.891656 -3.162449 0.845132 0.724097 -4.126839 2.542766 0.000000 0.000000 0.000000
48.374685 76.643574 331.496710 1.593464 -0.197287 33.246737 2.066112 -2.848330 -33.049068 2.805697 -1.265560 0.393083 -2.501913 7.116045 -2.555885 0.000000 0.000000 0.000000 -13.480200 0.023962 -0.620413 11.972648 9.054203 0.081365 -10.184085 -11.808183 0.736755 6.214757 -8.510422 3.211438 0.000000 0.000000 0.000000 0.000000 0.000000 0.000000 -7.672572 2.765041 -0.290259 -0.000000 0.000000 0.000000 1.147455 -3.465838 0.958487 -5.336533 6.483256 -0.798713 0.000000 0.000000 0.000000 0.000000 0.000000 0.000000 -4.447506 9.067259 -32.494479 8.657132 -5.327087 0.111448 -3.963991 4.363780 -0.674862 0.000000 0.000000 0.000000 -3.294264 5.936198 -33.488390 4.402605 -1.918190 0.532117 0.460068 -3.952474 2.448725 0.000000 0.000000 0.000000
46.876366 76.592252 330.366215 0.287996 0.985017 35.013659 1.860679 -3.177612 -34.854904 3.358476 -1.838806 0.446302 -1.614813 7.080853 -2.575306 0.000000 0.000000 0.000000 -13.819901 -0.525710 -0.704019 13.618902 9.947338 -0.033276 -9.841284 -14.181088 -0.896045 6.032147 -7.980024 5.248649 0.000000 0.000000 0.000000 0.000000 0.000000 0.000000 -6.978493 2.436548 -0.278718 -0.000000 0.000000 0.000000 2.135220 -3.503107 1.152506 -7.027485 8.793383 -1.274920 0.000000 0.000000 0.000000 0.000000 0.000000 0.000000 -2.902714 5.030396 -34.650332 6.516749 -3.720872 0.069652 -3.134489 2.934054 -0.398406 0.000000 0.000000 0.000000 -1.907240 1.637715 -35.120935 2.286782 -0.230985 0.158326 0.028466 -3.454429 2.150718 0.000000 0.000000 0.000000
44.927068 76.509134 329.185580 -1.423708 2.150683 37.002061 1.720095 -3.448395 -36.866837 3.898496 -2.415958 0.485392 -1.001821 6.527996 -2.255362 0.000000 0.000000 0.000000 -13.381839 -1.039548 -0.769401 14.379833 10.232468 -0.097787 -8.732933 -14.960874 -2.176603 6.269448 -6.366974 5.657387 0.000000 0.000000 0.000000 0.000000 0.000000 0.000000 -5.908707 2.026116 -0.254699 -0.000000 0.000000 0.000000 3.353394 -3.402706 1.358058 -7.480950 9.328278 -1.723497 0.000000 0.000000 0.000000 0.000000 0.000000 0.000000 -0.924287 0.305595 -36.757423 3.931940 -2.059317 -0.025700 -3.352683 3.178871 -0.389606 0.000000 0.000000 0.000000 0.072682 -3.479596 -36.871685 -0.546499 1.548581 -0.087557 -0.434693 -2.758917 1.700418 0.000000 0.000000 0.000000
42.907162 76.439814 328.040763 -3.150249 3.221433 39.304666 1.550077 -3.586263 -39.171539 4.323776 -2.933822 0.503132 -0.822089 5.386640 -1.634779 0.000000 0.000000 0.000000 -12.302407 -1.525179 -0.804706 14.283070 9.979213 -0.103902 -6.991371 -13.748709 -2.909852 6.025917 -7.405225 6.565674 0.000000 0.000000 0.000000 0.000000 0.000000 0.000000 -4.629412 1.542695 -0.216106 -0.000000 0.000000 0.000000 3.577939 -3.279812 1.370188 -9.839381 7.609362 -0.904436 0.000000 0.000000 0.000000 0.000000 0.000000 0.000000 0.401192 -4.486715 -39.200344 1.629802 -0.220291 0.124099 -3.500183 3.372923 -0.371999 0.000000 0.000000 0.000000 1.937546 -8.855943 -38.744705 -3.645471 3.384280 -0.216285 -0.744825 -2.501539 1.581414 0.000000 0.000000 0.000000
41.048595 76.402093 327.068019 -4.679143 4.077944 41.491256 1.411077 -3.574491 -41.342257 4.624787 -3.326325 0.499131 -1.339323 3.735624 -0.707660 0.000000 0.000000 0.000000 -10.744121 -1.937818 -0.792668 13.281713 9.178517 -0.054075 -5.258545 -11.163966 -2.897021 3.600707 -7.011882 6.505166 0.000000 0.000000 0.000000 0.000000 0.000000 0.000000 -3.356309 1.024734 -0.165542 -0.000000 0.000000 0.000000 2.921492 -3.105215 1.205402 -11.647303 4.679526 0.229145 0.000000 0.000000 0.000000 0.000000 0.000000 0.000000 2.063110 -8.391116 -40.889381 -0.731139 0.671801 -0.111585 -3.581699 3.420510 -0.387709 0.000000 0.000000 0.000000 3.511575 -13.803235 -40.413447 -6.669070 4.980095 -0.194934 -0.635487 -2.253965 1.327071 0.000000 0.000000 0.000000
